<svg width="229" height="51" viewBox="0 0 229 51" fill="none" xmlns="http://www.w3.org/2000/svg">
<path d="M2.304 46.8154C2.128 46.8154 1.992 46.7714 1.896 46.6834C1.808 46.5874 1.764 46.4514 1.764 46.2754V38.8954C1.764 38.7194 1.808 38.5874 1.896 38.4994C1.992 38.4034 2.128 38.3554 2.304 38.3554H5.148C5.732 38.3554 6.224 38.4434 6.624 38.6194C7.032 38.7874 7.344 39.0354 7.56 39.3634C7.776 39.6914 7.884 40.0914 7.884 40.5634C7.884 41.0914 7.728 41.5314 7.416 41.8834C7.112 42.2354 6.696 42.4674 6.168 42.5794V42.4114C6.768 42.4834 7.236 42.6994 7.572 43.0594C7.916 43.4194 8.088 43.8954 8.088 44.4874C8.088 45.2394 7.844 45.8154 7.356 46.2154C6.868 46.6154 6.18 46.8154 5.292 46.8154H2.304ZM2.724 46.0234H5.196C5.836 46.0234 6.316 45.8954 6.636 45.6394C6.956 45.3834 7.116 44.9954 7.116 44.4754C7.116 43.9474 6.956 43.5594 6.636 43.3114C6.316 43.0554 5.836 42.9274 5.196 42.9274H2.724V46.0234ZM2.724 42.1354H5.004C5.628 42.1354 6.1 42.0074 6.42 41.7514C6.748 41.4954 6.912 41.1274 6.912 40.6474C6.912 40.1514 6.748 39.7794 6.42 39.5314C6.1 39.2754 5.628 39.1474 5.004 39.1474H2.724V42.1354ZM11.5174 46.9234C10.9414 46.9234 10.5014 46.7474 10.1974 46.3954C9.89338 46.0434 9.74138 45.5394 9.74138 44.8834V38.7634C9.74138 38.6034 9.78138 38.4834 9.86138 38.4034C9.94138 38.3154 10.0614 38.2714 10.2214 38.2714C10.3734 38.2714 10.4934 38.3154 10.5814 38.4034C10.6694 38.4834 10.7134 38.6034 10.7134 38.7634V44.8114C10.7134 45.2434 10.7974 45.5674 10.9654 45.7834C11.1414 45.9914 11.3974 46.0954 11.7334 46.0954C11.8054 46.0954 11.8694 46.0914 11.9254 46.0834C11.9814 46.0754 12.0374 46.0714 12.0934 46.0714C12.1814 46.0634 12.2414 46.0834 12.2734 46.1314C12.3134 46.1794 12.3334 46.2754 12.3334 46.4194C12.3334 46.5634 12.3014 46.6714 12.2374 46.7434C12.1734 46.8154 12.0694 46.8634 11.9254 46.8874C11.8614 46.8954 11.7934 46.9034 11.7214 46.9114C11.6494 46.9194 11.5814 46.9234 11.5174 46.9234ZM15.6576 46.9234C15.0896 46.9234 14.5976 46.7994 14.1816 46.5514C13.7656 46.3034 13.4416 45.9554 13.2096 45.5074C12.9856 45.0514 12.8736 44.5154 12.8736 43.8994C12.8736 43.4354 12.9376 43.0194 13.0656 42.6514C13.1936 42.2754 13.3816 41.9554 13.6296 41.6914C13.8776 41.4274 14.1696 41.2274 14.5056 41.0914C14.8496 40.9474 15.2336 40.8754 15.6576 40.8754C16.2256 40.8754 16.7176 40.9994 17.1336 41.2474C17.5496 41.4954 17.8696 41.8474 18.0936 42.3034C18.3256 42.7514 18.4416 43.2834 18.4416 43.8994C18.4416 44.3634 18.3776 44.7794 18.2496 45.1474C18.1216 45.5154 17.9336 45.8354 17.6856 46.1074C17.4376 46.3714 17.1416 46.5754 16.7976 46.7194C16.4616 46.8554 16.0816 46.9234 15.6576 46.9234ZM15.6576 46.1434C16.0176 46.1434 16.3336 46.0554 16.6056 45.8794C16.8776 45.7034 17.0856 45.4474 17.2296 45.1114C17.3816 44.7754 17.4576 44.3714 17.4576 43.8994C17.4576 43.1714 17.2936 42.6154 16.9656 42.2314C16.6456 41.8474 16.2096 41.6554 15.6576 41.6554C15.2896 41.6554 14.9696 41.7434 14.6976 41.9194C14.4336 42.0874 14.2256 42.3394 14.0736 42.6754C13.9296 43.0034 13.8576 43.4114 13.8576 43.8994C13.8576 44.6194 14.0216 45.1754 14.3496 45.5674C14.6776 45.9514 15.1136 46.1434 15.6576 46.1434ZM22.3735 46.9234C21.7895 46.9234 21.2855 46.7954 20.8615 46.5394C20.4375 46.2834 20.1095 45.9274 19.8775 45.4714C19.6535 45.0074 19.5415 44.4714 19.5415 43.8634C19.5415 43.3994 19.6055 42.9834 19.7335 42.6154C19.8615 42.2474 20.0495 41.9354 20.2975 41.6794C20.5455 41.4154 20.8415 41.2154 21.1855 41.0794C21.5375 40.9434 21.9335 40.8754 22.3735 40.8754C22.6615 40.8754 22.9615 40.9194 23.2735 41.0074C23.5855 41.0954 23.8695 41.2474 24.1255 41.4634C24.2055 41.5194 24.2575 41.5874 24.2815 41.6674C24.3055 41.7474 24.3055 41.8274 24.2815 41.9074C24.2575 41.9794 24.2175 42.0434 24.1615 42.0994C24.1055 42.1474 24.0335 42.1754 23.9455 42.1834C23.8655 42.1914 23.7815 42.1634 23.6935 42.0994C23.4855 41.9394 23.2735 41.8274 23.0575 41.7634C22.8415 41.6994 22.6335 41.6674 22.4335 41.6674C22.1215 41.6674 21.8495 41.7194 21.6175 41.8234C21.3855 41.9194 21.1895 42.0594 21.0295 42.2434C20.8695 42.4274 20.7455 42.6554 20.6575 42.9274C20.5775 43.1994 20.5375 43.5154 20.5375 43.8754C20.5375 44.5714 20.7015 45.1234 21.0295 45.5314C21.3575 45.9314 21.8255 46.1314 22.4335 46.1314C22.6335 46.1314 22.8375 46.0994 23.0455 46.0354C23.2615 45.9714 23.4775 45.8594 23.6935 45.6994C23.7815 45.6354 23.8655 45.6074 23.9455 45.6154C24.0255 45.6234 24.0935 45.6554 24.1495 45.7114C24.2055 45.7594 24.2415 45.8234 24.2575 45.9034C24.2815 45.9834 24.2815 46.0634 24.2575 46.1434C24.2335 46.2154 24.1815 46.2794 24.1015 46.3354C23.8455 46.5434 23.5655 46.6954 23.2615 46.7914C22.9575 46.8794 22.6615 46.9234 22.3735 46.9234ZM25.9362 46.8994C25.7762 46.8994 25.6562 46.8554 25.5762 46.7674C25.4962 46.6794 25.4562 46.5554 25.4562 46.3954V38.7634C25.4562 38.6034 25.4962 38.4834 25.5762 38.4034C25.6562 38.3154 25.7762 38.2714 25.9362 38.2714C26.0882 38.2714 26.2082 38.3154 26.2962 38.4034C26.3842 38.4834 26.4282 38.6034 26.4282 38.7634V43.5754H26.4522L28.9122 41.2234C29.0242 41.1194 29.1202 41.0394 29.2002 40.9834C29.2882 40.9274 29.4042 40.8994 29.5482 40.8994C29.6762 40.8994 29.7762 40.9354 29.8482 41.0074C29.9202 41.0714 29.9522 41.1554 29.9442 41.2594C29.9442 41.3554 29.8962 41.4594 29.8002 41.5714L27.1842 44.0554V43.5274L30.0282 46.2034C30.1402 46.3154 30.1962 46.4234 30.1962 46.5274C30.1962 46.6314 30.1562 46.7194 30.0762 46.7914C30.0042 46.8634 29.9082 46.8994 29.7882 46.8994C29.6442 46.8994 29.5282 46.8714 29.4402 46.8154C29.3522 46.7514 29.2442 46.6594 29.1162 46.5394L26.4522 44.0794H26.4282V46.3954C26.4282 46.7314 26.2642 46.8994 25.9362 46.8994ZM31.3927 44.0194C31.2727 44.0194 31.1727 43.9834 31.0927 43.9114C31.0127 43.8314 30.9727 43.7354 30.9727 43.6234C30.9727 43.5034 31.0127 43.4074 31.0927 43.3354C31.1727 43.2554 31.2727 43.2154 31.3927 43.2154H34.0927C34.2047 43.2154 34.3007 43.2554 34.3807 43.3354C34.4607 43.4074 34.5007 43.5034 34.5007 43.6234C34.5007 43.7354 34.4607 43.8314 34.3807 43.9114C34.3007 43.9834 34.2047 44.0194 34.0927 44.0194H31.3927ZM36.8626 46.8154C36.6866 46.8154 36.5506 46.7714 36.4546 46.6834C36.3666 46.5874 36.3226 46.4514 36.3226 46.2754V38.8954C36.3226 38.7194 36.3666 38.5874 36.4546 38.4994C36.5506 38.4034 36.6866 38.3554 36.8626 38.3554H39.7066C40.2906 38.3554 40.7826 38.4434 41.1826 38.6194C41.5906 38.7874 41.9026 39.0354 42.1186 39.3634C42.3346 39.6914 42.4426 40.0914 42.4426 40.5634C42.4426 41.0914 42.2866 41.5314 41.9746 41.8834C41.6706 42.2354 41.2546 42.4674 40.7266 42.5794V42.4114C41.3266 42.4834 41.7946 42.6994 42.1306 43.0594C42.4746 43.4194 42.6466 43.8954 42.6466 44.4874C42.6466 45.2394 42.4026 45.8154 41.9146 46.2154C41.4266 46.6154 40.7386 46.8154 39.8506 46.8154H36.8626ZM37.2826 46.0234H39.7546C40.3946 46.0234 40.8746 45.8954 41.1946 45.6394C41.5146 45.3834 41.6746 44.9954 41.6746 44.4754C41.6746 43.9474 41.5146 43.5594 41.1946 43.3114C40.8746 43.0554 40.3946 42.9274 39.7546 42.9274H37.2826V46.0234ZM37.2826 42.1354H39.5626C40.1866 42.1354 40.6586 42.0074 40.9786 41.7514C41.3066 41.4954 41.4706 41.1274 41.4706 40.6474C41.4706 40.1514 41.3066 39.7794 40.9786 39.5314C40.6586 39.2754 40.1866 39.1474 39.5626 39.1474H37.2826V42.1354ZM46.136 46.9234C45.736 46.9234 45.376 46.8474 45.056 46.6954C44.744 46.5354 44.496 46.3194 44.312 46.0474C44.128 45.7754 44.036 45.4714 44.036 45.1354C44.036 44.7034 44.144 44.3634 44.36 44.1154C44.584 43.8674 44.948 43.6914 45.452 43.5874C45.964 43.4834 46.66 43.4314 47.54 43.4314H48.08V44.0674H47.552C46.904 44.0674 46.392 44.0994 46.016 44.1634C45.648 44.2194 45.388 44.3194 45.236 44.4634C45.092 44.6074 45.02 44.8114 45.02 45.0754C45.02 45.4034 45.132 45.6714 45.356 45.8794C45.588 46.0874 45.9 46.1914 46.292 46.1914C46.612 46.1914 46.892 46.1154 47.132 45.9634C47.38 45.8114 47.572 45.6034 47.708 45.3394C47.852 45.0754 47.924 44.7714 47.924 44.4274V43.0594C47.924 42.5634 47.824 42.2074 47.624 41.9914C47.424 41.7674 47.096 41.6554 46.64 41.6554C46.36 41.6554 46.08 41.6914 45.8 41.7634C45.52 41.8354 45.224 41.9514 44.912 42.1114C44.8 42.1674 44.704 42.1874 44.624 42.1714C44.544 42.1474 44.48 42.1034 44.432 42.0394C44.384 41.9754 44.356 41.9034 44.348 41.8234C44.34 41.7354 44.356 41.6514 44.396 41.5714C44.444 41.4914 44.516 41.4274 44.612 41.3794C44.964 41.2034 45.312 41.0754 45.656 40.9954C46 40.9154 46.328 40.8754 46.64 40.8754C47.144 40.8754 47.56 40.9594 47.888 41.1274C48.216 41.2874 48.46 41.5354 48.62 41.8714C48.78 42.1994 48.86 42.6234 48.86 43.1434V46.3954C48.86 46.5554 48.82 46.6794 48.74 46.7674C48.668 46.8554 48.56 46.8994 48.416 46.8994C48.264 46.8994 48.148 46.8554 48.068 46.7674C47.988 46.6794 47.948 46.5554 47.948 46.3954V45.4594H48.056C47.992 45.7634 47.868 46.0234 47.684 46.2394C47.508 46.4554 47.288 46.6234 47.024 46.7434C46.76 46.8634 46.464 46.9234 46.136 46.9234ZM52.6313 46.9234C52.2713 46.9234 51.9073 46.8794 51.5393 46.7914C51.1793 46.7034 50.8433 46.5514 50.5313 46.3354C50.4513 46.2794 50.3953 46.2154 50.3633 46.1434C50.3313 46.0634 50.3193 45.9874 50.3273 45.9154C50.3433 45.8354 50.3753 45.7674 50.4233 45.7114C50.4793 45.6554 50.5433 45.6234 50.6153 45.6154C50.6953 45.5994 50.7833 45.6154 50.8793 45.6634C51.1913 45.8554 51.4913 45.9914 51.7793 46.0714C52.0753 46.1434 52.3673 46.1794 52.6553 46.1794C53.1113 46.1794 53.4553 46.0954 53.6873 45.9274C53.9193 45.7594 54.0353 45.5314 54.0353 45.2434C54.0353 45.0194 53.9593 44.8434 53.8073 44.7154C53.6553 44.5794 53.4153 44.4754 53.0873 44.4034L51.9953 44.1634C51.4913 44.0594 51.1153 43.8794 50.8673 43.6234C50.6273 43.3674 50.5073 43.0354 50.5073 42.6274C50.5073 42.2674 50.5993 41.9594 50.7833 41.7034C50.9753 41.4394 51.2433 41.2354 51.5873 41.0914C51.9313 40.9474 52.3313 40.8754 52.7873 40.8754C53.1393 40.8754 53.4713 40.9234 53.7833 41.0194C54.1033 41.1074 54.3913 41.2514 54.6473 41.4514C54.7273 41.5074 54.7793 41.5754 54.8033 41.6554C54.8353 41.7274 54.8393 41.8034 54.8153 41.8834C54.7993 41.9554 54.7633 42.0194 54.7073 42.0754C54.6513 42.1234 54.5833 42.1514 54.5033 42.1594C54.4233 42.1674 54.3393 42.1434 54.2513 42.0874C54.0113 41.9274 53.7673 41.8114 53.5193 41.7394C53.2713 41.6594 53.0273 41.6194 52.7873 41.6194C52.3393 41.6194 51.9993 41.7074 51.7673 41.8834C51.5353 42.0594 51.4193 42.2914 51.4193 42.5794C51.4193 42.8034 51.4913 42.9874 51.6353 43.1314C51.7793 43.2754 52.0033 43.3794 52.3073 43.4434L53.3993 43.6714C53.9193 43.7834 54.3073 43.9634 54.5633 44.2114C54.8273 44.4514 54.9593 44.7794 54.9593 45.1954C54.9593 45.7234 54.7473 46.1434 54.3233 46.4554C53.8993 46.7674 53.3353 46.9234 52.6313 46.9234ZM59.0686 46.9234C58.4526 46.9234 57.9206 46.8034 57.4726 46.5634C57.0326 46.3154 56.6886 45.9674 56.4406 45.5194C56.2006 45.0714 56.0806 44.5354 56.0806 43.9114C56.0806 43.3034 56.2006 42.7754 56.4406 42.3274C56.6806 41.8714 57.0086 41.5154 57.4246 41.2594C57.8486 41.0034 58.3366 40.8754 58.8886 40.8754C59.2806 40.8754 59.6326 40.9434 59.9446 41.0794C60.2566 41.2074 60.5206 41.3954 60.7366 41.6434C60.9606 41.8914 61.1286 42.1914 61.2406 42.5434C61.3606 42.8954 61.4206 43.2914 61.4206 43.7314C61.4206 43.8594 61.3846 43.9554 61.3126 44.0194C61.2406 44.0754 61.1366 44.1034 61.0006 44.1034H56.8246V43.4674H60.7726L60.5806 43.6234C60.5806 43.1914 60.5166 42.8274 60.3886 42.5314C60.2606 42.2274 60.0726 41.9954 59.8246 41.8354C59.5846 41.6754 59.2806 41.5954 58.9126 41.5954C58.5046 41.5954 58.1566 41.6914 57.8686 41.8834C57.5886 42.0674 57.3766 42.3274 57.2326 42.6634C57.0886 42.9914 57.0166 43.3754 57.0166 43.8154V43.8874C57.0166 44.6234 57.1926 45.1834 57.5446 45.5674C57.9046 45.9514 58.4126 46.1434 59.0686 46.1434C59.3406 46.1434 59.6086 46.1074 59.8726 46.0354C60.1446 45.9634 60.4086 45.8434 60.6646 45.6754C60.7766 45.6034 60.8766 45.5714 60.9646 45.5794C61.0606 45.5794 61.1366 45.6074 61.1926 45.6634C61.2486 45.7114 61.2846 45.7754 61.3006 45.8554C61.3246 45.9274 61.3166 46.0074 61.2766 46.0954C61.2446 46.1834 61.1766 46.2594 61.0726 46.3234C60.8086 46.5154 60.4966 46.6634 60.1366 46.7674C59.7766 46.8714 59.4206 46.9234 59.0686 46.9234ZM65.0473 46.9234C64.5273 46.9234 64.0713 46.7994 63.6793 46.5514C63.2953 46.3034 62.9953 45.9554 62.7793 45.5074C62.5713 45.0514 62.4673 44.5154 62.4673 43.8994C62.4673 43.2754 62.5713 42.7394 62.7793 42.2914C62.9953 41.8354 63.2953 41.4874 63.6793 41.2474C64.0713 40.9994 64.5273 40.8754 65.0473 40.8754C65.5753 40.8754 66.0273 41.0074 66.4033 41.2714C66.7793 41.5354 67.0313 41.8914 67.1593 42.3394H67.0273V38.7634C67.0273 38.6034 67.0673 38.4834 67.1473 38.4034C67.2353 38.3154 67.3593 38.2714 67.5193 38.2714C67.6713 38.2714 67.7873 38.3154 67.8673 38.4034C67.9553 38.4834 67.9993 38.6034 67.9993 38.7634V46.3954C67.9993 46.5554 67.9593 46.6794 67.8793 46.7674C67.7993 46.8554 67.6793 46.8994 67.5193 46.8994C67.3673 46.8994 67.2473 46.8554 67.1593 46.7674C67.0793 46.6794 67.0393 46.5554 67.0393 46.3954V45.2554L67.1713 45.4234C67.0433 45.8794 66.7873 46.2434 66.4033 46.5154C66.0273 46.7874 65.5753 46.9234 65.0473 46.9234ZM65.2513 46.1434C65.6113 46.1434 65.9273 46.0554 66.1993 45.8794C66.4713 45.7034 66.6793 45.4474 66.8233 45.1114C66.9753 44.7754 67.0513 44.3714 67.0513 43.8994C67.0513 43.1714 66.8873 42.6154 66.5593 42.2314C66.2393 41.8474 65.8033 41.6554 65.2513 41.6554C64.8833 41.6554 64.5633 41.7434 64.2913 41.9194C64.0273 42.0874 63.8193 42.3394 63.6673 42.6754C63.5233 43.0034 63.4513 43.4114 63.4513 43.8994C63.4513 44.6194 63.6153 45.1754 63.9433 45.5674C64.2713 45.9514 64.7073 46.1434 65.2513 46.1434ZM73.5772 46.8994C73.4092 46.8994 73.2772 46.8554 73.1812 46.7674C73.0932 46.6714 73.0492 46.5354 73.0492 46.3594V38.8954C73.0492 38.7194 73.0932 38.5874 73.1812 38.4994C73.2772 38.4034 73.4132 38.3554 73.5892 38.3554H77.9452C78.0812 38.3554 78.1852 38.3914 78.2572 38.4634C78.3292 38.5354 78.3652 38.6354 78.3652 38.7634C78.3652 38.8994 78.3292 39.0034 78.2572 39.0754C78.1852 39.1474 78.0812 39.1834 77.9452 39.1834H74.0332V42.1354H77.6932C77.8292 42.1354 77.9332 42.1714 78.0052 42.2434C78.0852 42.3154 78.1252 42.4154 78.1252 42.5434C78.1252 42.6794 78.0852 42.7834 78.0052 42.8554C77.9332 42.9274 77.8292 42.9634 77.6932 42.9634H74.0332V46.3594C74.0332 46.7194 73.8812 46.8994 73.5772 46.8994ZM82.0781 46.9234C81.7021 46.9234 81.3341 46.8914 80.9741 46.8274C80.6141 46.7634 80.2781 46.6714 79.9661 46.5514C79.6621 46.4314 79.3861 46.2794 79.1381 46.0954C79.0421 46.0234 78.9741 45.9434 78.9341 45.8554C78.9021 45.7594 78.8941 45.6674 78.9101 45.5794C78.9341 45.4834 78.9741 45.4034 79.0301 45.3394C79.0941 45.2754 79.1701 45.2394 79.2581 45.2314C79.3461 45.2234 79.4421 45.2514 79.5461 45.3154C79.9061 45.5714 80.2901 45.7594 80.6981 45.8794C81.1061 45.9914 81.5661 46.0474 82.0781 46.0474C82.7981 46.0474 83.3301 45.9154 83.6741 45.6514C84.0261 45.3794 84.2021 45.0234 84.2021 44.5834C84.2021 44.2234 84.0741 43.9434 83.8181 43.7434C83.5701 43.5354 83.1501 43.3714 82.5581 43.2514L81.3101 42.9994C80.5581 42.8394 79.9941 42.5794 79.6181 42.2194C79.2501 41.8514 79.0661 41.3634 79.0661 40.7554C79.0661 40.3794 79.1421 40.0394 79.2941 39.7354C79.4461 39.4234 79.6581 39.1594 79.9301 38.9434C80.2021 38.7194 80.5261 38.5474 80.9021 38.4274C81.2781 38.3074 81.6941 38.2474 82.1501 38.2474C82.6541 38.2474 83.1221 38.3194 83.5541 38.4634C83.9941 38.5994 84.3901 38.8074 84.7421 39.0874C84.8301 39.1594 84.8901 39.2434 84.9221 39.3394C84.9541 39.4274 84.9581 39.5154 84.9341 39.6034C84.9101 39.6834 84.8661 39.7514 84.8021 39.8074C84.7461 39.8634 84.6701 39.8954 84.5741 39.9034C84.4861 39.9114 84.3861 39.8794 84.2741 39.8074C83.9541 39.5674 83.6221 39.3954 83.2781 39.2914C82.9341 39.1794 82.5541 39.1234 82.1381 39.1234C81.7141 39.1234 81.3461 39.1874 81.0341 39.3154C80.7301 39.4434 80.4901 39.6314 80.3141 39.8794C80.1461 40.1194 80.0621 40.3994 80.0621 40.7194C80.0621 41.1034 80.1781 41.4074 80.4101 41.6314C80.6501 41.8554 81.0381 42.0194 81.5741 42.1234L82.8221 42.3874C83.6301 42.5554 84.2261 42.8114 84.6101 43.1554C85.0021 43.4914 85.1981 43.9514 85.1981 44.5354C85.1981 44.8874 85.1261 45.2114 84.9821 45.5074C84.8381 45.8034 84.6301 46.0594 84.3581 46.2754C84.0861 46.4834 83.7581 46.6434 83.3741 46.7554C82.9901 46.8674 82.5581 46.9234 82.0781 46.9234ZM87.2649 46.8154C87.0889 46.8154 86.9529 46.7714 86.8569 46.6834C86.7689 46.5874 86.7249 46.4514 86.7249 46.2754V38.8954C86.7249 38.7194 86.7689 38.5874 86.8569 38.4994C86.9529 38.4034 87.0889 38.3554 87.2649 38.3554H91.7289C91.8649 38.3554 91.9689 38.3914 92.0409 38.4634C92.1129 38.5354 92.1489 38.6354 92.1489 38.7634C92.1489 38.8994 92.1129 39.0034 92.0409 39.0754C91.9689 39.1474 91.8649 39.1834 91.7289 39.1834H87.6849V42.1114H91.4769C91.6129 42.1114 91.7169 42.1474 91.7889 42.2194C91.8609 42.2834 91.8969 42.3834 91.8969 42.5194C91.8969 42.6554 91.8609 42.7594 91.7889 42.8314C91.7169 42.9034 91.6129 42.9394 91.4769 42.9394H87.6849V45.9874H91.7289C91.8649 45.9874 91.9689 46.0234 92.0409 46.0954C92.1129 46.1674 92.1489 46.2674 92.1489 46.3954C92.1489 46.5314 92.1129 46.6354 92.0409 46.7074C91.9689 46.7794 91.8649 46.8154 91.7289 46.8154H87.2649ZM99.5268 46.8994C99.3828 46.8994 99.2668 46.8634 99.1788 46.7914C99.0908 46.7114 99.0188 46.5954 98.9628 46.4434L96.3108 38.8714C96.2548 38.7034 96.2668 38.5634 96.3468 38.4514C96.4348 38.3314 96.5708 38.2714 96.7548 38.2714C96.8908 38.2714 96.9988 38.3074 97.0788 38.3794C97.1588 38.4434 97.2268 38.5474 97.2828 38.6914L99.7668 45.9754H99.3468L101.879 38.7274C101.935 38.5754 102.003 38.4634 102.083 38.3914C102.163 38.3114 102.271 38.2714 102.407 38.2714C102.535 38.2714 102.635 38.3114 102.707 38.3914C102.787 38.4634 102.855 38.5754 102.911 38.7274L105.407 45.9754H105.035L107.543 38.6914C107.583 38.5554 107.643 38.4514 107.723 38.3794C107.811 38.3074 107.923 38.2714 108.059 38.2714C108.227 38.2714 108.351 38.3274 108.431 38.4394C108.511 38.5514 108.519 38.6954 108.455 38.8714L105.791 46.4434C105.735 46.5954 105.663 46.7114 105.575 46.7914C105.495 46.8634 105.379 46.8994 105.227 46.8994C105.083 46.8994 104.967 46.8634 104.879 46.7914C104.799 46.7114 104.727 46.5954 104.663 46.4434L102.251 39.4954H102.515L100.079 46.4434C100.023 46.5954 99.9548 46.7114 99.8748 46.7914C99.7948 46.8634 99.6788 46.8994 99.5268 46.8994ZM111.611 46.9234C111.043 46.9234 110.551 46.7994 110.135 46.5514C109.719 46.3034 109.395 45.9554 109.163 45.5074C108.939 45.0514 108.827 44.5154 108.827 43.8994C108.827 43.4354 108.891 43.0194 109.019 42.6514C109.147 42.2754 109.335 41.9554 109.583 41.6914C109.831 41.4274 110.123 41.2274 110.459 41.0914C110.803 40.9474 111.187 40.8754 111.611 40.8754C112.179 40.8754 112.671 40.9994 113.087 41.2474C113.503 41.4954 113.823 41.8474 114.047 42.3034C114.279 42.7514 114.395 43.2834 114.395 43.8994C114.395 44.3634 114.331 44.7794 114.203 45.1474C114.075 45.5154 113.887 45.8354 113.639 46.1074C113.391 46.3714 113.095 46.5754 112.751 46.7194C112.415 46.8554 112.035 46.9234 111.611 46.9234ZM111.611 46.1434C111.971 46.1434 112.287 46.0554 112.559 45.8794C112.831 45.7034 113.039 45.4474 113.183 45.1114C113.335 44.7754 113.411 44.3714 113.411 43.8994C113.411 43.1714 113.247 42.6154 112.919 42.2314C112.599 41.8474 112.163 41.6554 111.611 41.6554C111.243 41.6554 110.923 41.7434 110.651 41.9194C110.387 42.0874 110.179 42.3394 110.027 42.6754C109.883 43.0034 109.811 43.4114 109.811 43.8994C109.811 44.6194 109.975 45.1754 110.303 45.5674C110.631 45.9514 111.067 46.1434 111.611 46.1434ZM116.347 46.8994C116.187 46.8994 116.063 46.8554 115.975 46.7674C115.895 46.6794 115.855 46.5554 115.855 46.3954V41.3914C115.855 41.2314 115.895 41.1114 115.975 41.0314C116.055 40.9434 116.171 40.8994 116.323 40.8994C116.475 40.8994 116.591 40.9434 116.671 41.0314C116.759 41.1114 116.803 41.2314 116.803 41.3914V42.3634H116.683C116.811 41.8914 117.055 41.5274 117.415 41.2714C117.775 41.0154 118.219 40.8794 118.747 40.8634C118.867 40.8554 118.963 40.8834 119.035 40.9474C119.107 41.0034 119.147 41.1034 119.155 41.2474C119.163 41.3834 119.131 41.4914 119.059 41.5714C118.987 41.6514 118.875 41.6994 118.723 41.7154L118.531 41.7394C117.987 41.7874 117.567 41.9634 117.271 42.2674C116.983 42.5634 116.839 42.9714 116.839 43.4914V46.3954C116.839 46.5554 116.795 46.6794 116.707 46.7674C116.627 46.8554 116.507 46.8994 116.347 46.8994ZM122.305 46.9234C121.785 46.9234 121.329 46.7994 120.937 46.5514C120.553 46.3034 120.253 45.9554 120.037 45.5074C119.829 45.0514 119.725 44.5154 119.725 43.8994C119.725 43.2754 119.829 42.7394 120.037 42.2914C120.253 41.8354 120.553 41.4874 120.937 41.2474C121.329 40.9994 121.785 40.8754 122.305 40.8754C122.833 40.8754 123.285 41.0074 123.661 41.2714C124.037 41.5354 124.289 41.8914 124.417 42.3394H124.285V38.7634C124.285 38.6034 124.325 38.4834 124.405 38.4034C124.493 38.3154 124.617 38.2714 124.777 38.2714C124.929 38.2714 125.045 38.3154 125.125 38.4034C125.213 38.4834 125.257 38.6034 125.257 38.7634V46.3954C125.257 46.5554 125.217 46.6794 125.137 46.7674C125.057 46.8554 124.937 46.8994 124.777 46.8994C124.625 46.8994 124.505 46.8554 124.417 46.7674C124.337 46.6794 124.297 46.5554 124.297 46.3954V45.2554L124.429 45.4234C124.301 45.8794 124.045 46.2434 123.661 46.5154C123.285 46.7874 122.833 46.9234 122.305 46.9234ZM122.509 46.1434C122.869 46.1434 123.185 46.0554 123.457 45.8794C123.729 45.7034 123.937 45.4474 124.081 45.1114C124.233 44.7754 124.309 44.3714 124.309 43.8994C124.309 43.1714 124.145 42.6154 123.817 42.2314C123.497 41.8474 123.061 41.6554 122.509 41.6554C122.141 41.6554 121.821 41.7434 121.549 41.9194C121.285 42.0874 121.077 42.3394 120.925 42.6754C120.781 43.0034 120.709 43.4114 120.709 43.8994C120.709 44.6194 120.873 45.1754 121.201 45.5674C121.529 45.9514 121.965 46.1434 122.509 46.1434ZM127.705 46.8994C127.545 46.8994 127.421 46.8554 127.333 46.7674C127.253 46.6714 127.213 46.5434 127.213 46.3834V38.8594C127.213 38.6914 127.257 38.5674 127.345 38.4874C127.433 38.3994 127.557 38.3554 127.717 38.3554H130.561C131.465 38.3554 132.161 38.5794 132.649 39.0274C133.137 39.4674 133.381 40.0914 133.381 40.8994C133.381 41.6994 133.137 42.3234 132.649 42.7714C132.161 43.2194 131.465 43.4434 130.561 43.4434H128.197V46.3834C128.197 46.5434 128.157 46.6714 128.077 46.7674C127.997 46.8554 127.873 46.8994 127.705 46.8994ZM128.197 42.6154H130.441C131.089 42.6154 131.577 42.4714 131.905 42.1834C132.241 41.8874 132.409 41.4594 132.409 40.8994C132.409 40.3314 132.241 39.9034 131.905 39.6154C131.577 39.3194 131.089 39.1714 130.441 39.1714H128.197V42.6154ZM135.05 46.8994C134.89 46.8994 134.766 46.8554 134.678 46.7674C134.598 46.6794 134.558 46.5554 134.558 46.3954V41.3914C134.558 41.2314 134.598 41.1114 134.678 41.0314C134.758 40.9434 134.874 40.8994 135.026 40.8994C135.178 40.8994 135.294 40.9434 135.374 41.0314C135.462 41.1114 135.506 41.2314 135.506 41.3914V42.3634H135.386C135.514 41.8914 135.758 41.5274 136.118 41.2714C136.478 41.0154 136.922 40.8794 137.45 40.8634C137.57 40.8554 137.666 40.8834 137.738 40.9474C137.81 41.0034 137.85 41.1034 137.858 41.2474C137.866 41.3834 137.834 41.4914 137.762 41.5714C137.69 41.6514 137.578 41.6994 137.426 41.7154L137.234 41.7394C136.69 41.7874 136.27 41.9634 135.974 42.2674C135.686 42.5634 135.542 42.9714 135.542 43.4914V46.3954C135.542 46.5554 135.498 46.6794 135.41 46.7674C135.33 46.8554 135.21 46.8994 135.05 46.8994ZM141.416 46.9234C140.8 46.9234 140.268 46.8034 139.82 46.5634C139.38 46.3154 139.036 45.9674 138.788 45.5194C138.548 45.0714 138.428 44.5354 138.428 43.9114C138.428 43.3034 138.548 42.7754 138.788 42.3274C139.028 41.8714 139.356 41.5154 139.772 41.2594C140.196 41.0034 140.684 40.8754 141.236 40.8754C141.628 40.8754 141.98 40.9434 142.292 41.0794C142.604 41.2074 142.868 41.3954 143.084 41.6434C143.308 41.8914 143.476 42.1914 143.588 42.5434C143.708 42.8954 143.768 43.2914 143.768 43.7314C143.768 43.8594 143.732 43.9554 143.66 44.0194C143.588 44.0754 143.484 44.1034 143.348 44.1034H139.172V43.4674H143.12L142.928 43.6234C142.928 43.1914 142.864 42.8274 142.736 42.5314C142.608 42.2274 142.42 41.9954 142.172 41.8354C141.932 41.6754 141.628 41.5954 141.26 41.5954C140.852 41.5954 140.504 41.6914 140.216 41.8834C139.936 42.0674 139.724 42.3274 139.58 42.6634C139.436 42.9914 139.364 43.3754 139.364 43.8154V43.8874C139.364 44.6234 139.54 45.1834 139.892 45.5674C140.252 45.9514 140.76 46.1434 141.416 46.1434C141.688 46.1434 141.956 46.1074 142.22 46.0354C142.492 45.9634 142.756 45.8434 143.012 45.6754C143.124 45.6034 143.224 45.5714 143.312 45.5794C143.408 45.5794 143.484 45.6074 143.54 45.6634C143.596 45.7114 143.632 45.7754 143.648 45.8554C143.672 45.9274 143.664 46.0074 143.624 46.0954C143.592 46.1834 143.524 46.2594 143.42 46.3234C143.156 46.5154 142.844 46.6634 142.484 46.7674C142.124 46.8714 141.768 46.9234 141.416 46.9234ZM147.143 46.9234C146.783 46.9234 146.419 46.8794 146.051 46.7914C145.691 46.7034 145.355 46.5514 145.043 46.3354C144.963 46.2794 144.907 46.2154 144.875 46.1434C144.843 46.0634 144.831 45.9874 144.839 45.9154C144.855 45.8354 144.887 45.7674 144.935 45.7114C144.991 45.6554 145.055 45.6234 145.127 45.6154C145.207 45.5994 145.295 45.6154 145.391 45.6634C145.703 45.8554 146.003 45.9914 146.291 46.0714C146.587 46.1434 146.879 46.1794 147.167 46.1794C147.623 46.1794 147.967 46.0954 148.199 45.9274C148.431 45.7594 148.547 45.5314 148.547 45.2434C148.547 45.0194 148.471 44.8434 148.319 44.7154C148.167 44.5794 147.927 44.4754 147.599 44.4034L146.507 44.1634C146.003 44.0594 145.627 43.8794 145.379 43.6234C145.139 43.3674 145.019 43.0354 145.019 42.6274C145.019 42.2674 145.111 41.9594 145.295 41.7034C145.487 41.4394 145.755 41.2354 146.099 41.0914C146.443 40.9474 146.843 40.8754 147.299 40.8754C147.651 40.8754 147.983 40.9234 148.295 41.0194C148.615 41.1074 148.903 41.2514 149.159 41.4514C149.239 41.5074 149.291 41.5754 149.315 41.6554C149.347 41.7274 149.351 41.8034 149.327 41.8834C149.311 41.9554 149.275 42.0194 149.219 42.0754C149.163 42.1234 149.095 42.1514 149.015 42.1594C148.935 42.1674 148.851 42.1434 148.763 42.0874C148.523 41.9274 148.279 41.8114 148.031 41.7394C147.783 41.6594 147.539 41.6194 147.299 41.6194C146.851 41.6194 146.511 41.7074 146.279 41.8834C146.047 42.0594 145.931 42.2914 145.931 42.5794C145.931 42.8034 146.003 42.9874 146.147 43.1314C146.291 43.2754 146.515 43.3794 146.819 43.4434L147.911 43.6714C148.431 43.7834 148.819 43.9634 149.075 44.2114C149.339 44.4514 149.471 44.7794 149.471 45.1954C149.471 45.7234 149.259 46.1434 148.835 46.4554C148.411 46.7674 147.847 46.9234 147.143 46.9234ZM152.92 46.9234C152.56 46.9234 152.196 46.8794 151.828 46.7914C151.468 46.7034 151.132 46.5514 150.82 46.3354C150.74 46.2794 150.684 46.2154 150.652 46.1434C150.62 46.0634 150.608 45.9874 150.616 45.9154C150.632 45.8354 150.664 45.7674 150.712 45.7114C150.768 45.6554 150.832 45.6234 150.904 45.6154C150.984 45.5994 151.072 45.6154 151.168 45.6634C151.48 45.8554 151.78 45.9914 152.068 46.0714C152.364 46.1434 152.656 46.1794 152.944 46.1794C153.4 46.1794 153.744 46.0954 153.976 45.9274C154.208 45.7594 154.324 45.5314 154.324 45.2434C154.324 45.0194 154.248 44.8434 154.096 44.7154C153.944 44.5794 153.704 44.4754 153.376 44.4034L152.284 44.1634C151.78 44.0594 151.404 43.8794 151.156 43.6234C150.916 43.3674 150.796 43.0354 150.796 42.6274C150.796 42.2674 150.888 41.9594 151.072 41.7034C151.264 41.4394 151.532 41.2354 151.876 41.0914C152.22 40.9474 152.62 40.8754 153.076 40.8754C153.428 40.8754 153.76 40.9234 154.072 41.0194C154.392 41.1074 154.68 41.2514 154.936 41.4514C155.016 41.5074 155.068 41.5754 155.092 41.6554C155.124 41.7274 155.128 41.8034 155.104 41.8834C155.088 41.9554 155.052 42.0194 154.996 42.0754C154.94 42.1234 154.872 42.1514 154.792 42.1594C154.712 42.1674 154.628 42.1434 154.54 42.0874C154.3 41.9274 154.056 41.8114 153.808 41.7394C153.56 41.6594 153.316 41.6194 153.076 41.6194C152.628 41.6194 152.288 41.7074 152.056 41.8834C151.824 42.0594 151.708 42.2914 151.708 42.5794C151.708 42.8034 151.78 42.9874 151.924 43.1314C152.068 43.2754 152.292 43.3794 152.596 43.4434L153.688 43.6714C154.208 43.7834 154.596 43.9634 154.852 44.2114C155.116 44.4514 155.248 44.7794 155.248 45.1954C155.248 45.7234 155.036 46.1434 154.612 46.4554C154.188 46.7674 153.624 46.9234 152.92 46.9234ZM162.523 46.8994C162.371 46.8994 162.251 46.8554 162.163 46.7674C162.075 46.6714 162.031 46.5434 162.031 46.3834V39.2074H159.331C159.187 39.2074 159.075 39.1674 158.995 39.0874C158.915 39.0074 158.875 38.9034 158.875 38.7754C158.875 38.6394 158.915 38.5354 158.995 38.4634C159.075 38.3914 159.187 38.3554 159.331 38.3554H165.727C165.871 38.3554 165.983 38.3914 166.063 38.4634C166.143 38.5354 166.183 38.6394 166.183 38.7754C166.183 38.9114 166.143 39.0194 166.063 39.0994C165.983 39.1714 165.871 39.2074 165.727 39.2074H163.027V46.3834C163.027 46.5434 162.983 46.6714 162.895 46.7674C162.815 46.8554 162.691 46.8994 162.523 46.8994ZM167.827 46.8994C167.667 46.8994 167.547 46.8554 167.467 46.7674C167.387 46.6794 167.347 46.5554 167.347 46.3954V38.7634C167.347 38.6034 167.387 38.4834 167.467 38.4034C167.547 38.3154 167.667 38.2714 167.827 38.2714C167.979 38.2714 168.099 38.3154 168.187 38.4034C168.275 38.4834 168.319 38.6034 168.319 38.7634V42.2794H168.163C168.331 41.8154 168.603 41.4674 168.979 41.2354C169.363 40.9954 169.803 40.8754 170.299 40.8754C170.763 40.8754 171.147 40.9594 171.451 41.1274C171.763 41.2954 171.995 41.5514 172.147 41.8954C172.299 42.2314 172.375 42.6594 172.375 43.1794V46.3954C172.375 46.5554 172.331 46.6794 172.243 46.7674C172.163 46.8554 172.047 46.8994 171.895 46.8994C171.735 46.8994 171.611 46.8554 171.523 46.7674C171.443 46.6794 171.403 46.5554 171.403 46.3954V43.2394C171.403 42.6954 171.295 42.2994 171.079 42.0514C170.871 41.7954 170.535 41.6674 170.071 41.6674C169.535 41.6674 169.107 41.8354 168.787 42.1714C168.475 42.4994 168.319 42.9394 168.319 43.4914V46.3954C168.319 46.7314 168.155 46.8994 167.827 46.8994ZM176.795 46.9234C176.179 46.9234 175.647 46.8034 175.199 46.5634C174.759 46.3154 174.415 45.9674 174.167 45.5194C173.927 45.0714 173.807 44.5354 173.807 43.9114C173.807 43.3034 173.927 42.7754 174.167 42.3274C174.407 41.8714 174.735 41.5154 175.151 41.2594C175.575 41.0034 176.063 40.8754 176.615 40.8754C177.007 40.8754 177.359 40.9434 177.671 41.0794C177.983 41.2074 178.247 41.3954 178.463 41.6434C178.687 41.8914 178.855 42.1914 178.967 42.5434C179.087 42.8954 179.147 43.2914 179.147 43.7314C179.147 43.8594 179.111 43.9554 179.039 44.0194C178.967 44.0754 178.863 44.1034 178.727 44.1034H174.551V43.4674H178.499L178.307 43.6234C178.307 43.1914 178.243 42.8274 178.115 42.5314C177.987 42.2274 177.799 41.9954 177.551 41.8354C177.311 41.6754 177.007 41.5954 176.639 41.5954C176.231 41.5954 175.883 41.6914 175.595 41.8834C175.315 42.0674 175.103 42.3274 174.959 42.6634C174.815 42.9914 174.743 43.3754 174.743 43.8154V43.8874C174.743 44.6234 174.919 45.1834 175.271 45.5674C175.631 45.9514 176.139 46.1434 176.795 46.1434C177.067 46.1434 177.335 46.1074 177.599 46.0354C177.871 45.9634 178.135 45.8434 178.391 45.6754C178.503 45.6034 178.603 45.5714 178.691 45.5794C178.787 45.5794 178.863 45.6074 178.919 45.6634C178.975 45.7114 179.011 45.7754 179.027 45.8554C179.051 45.9274 179.043 46.0074 179.003 46.0954C178.971 46.1834 178.903 46.2594 178.799 46.3234C178.535 46.5154 178.223 46.6634 177.863 46.7674C177.503 46.8714 177.147 46.9234 176.795 46.9234ZM181.058 46.8994C180.898 46.8994 180.778 46.8554 180.698 46.7674C180.618 46.6794 180.578 46.5554 180.578 46.3954V41.3914C180.578 41.2314 180.618 41.1114 180.698 41.0314C180.778 40.9434 180.894 40.8994 181.046 40.8994C181.198 40.8994 181.314 40.9434 181.394 41.0314C181.482 41.1114 181.526 41.2314 181.526 41.3914V42.4474L181.394 42.2794C181.546 41.8314 181.79 41.4874 182.126 41.2474C182.47 40.9994 182.878 40.8754 183.35 40.8754C183.846 40.8754 184.246 40.9954 184.55 41.2354C184.862 41.4674 185.07 41.8314 185.174 42.3274H184.994C185.138 41.8794 185.394 41.5274 185.762 41.2714C186.138 41.0074 186.574 40.8754 187.07 40.8754C187.51 40.8754 187.87 40.9594 188.15 41.1274C188.438 41.2954 188.654 41.5514 188.798 41.8954C188.942 42.2314 189.014 42.6594 189.014 43.1794V46.3954C189.014 46.5554 188.97 46.6794 188.882 46.7674C188.802 46.8554 188.682 46.8994 188.522 46.8994C188.37 46.8994 188.25 46.8554 188.162 46.7674C188.082 46.6794 188.042 46.5554 188.042 46.3954V43.2274C188.042 42.6914 187.95 42.2994 187.766 42.0514C187.582 41.7954 187.27 41.6674 186.83 41.6674C186.35 41.6674 185.97 41.8354 185.69 42.1714C185.418 42.4994 185.282 42.9474 185.282 43.5154V46.3954C185.282 46.5554 185.238 46.6794 185.15 46.7674C185.07 46.8554 184.95 46.8994 184.79 46.8994C184.638 46.8994 184.518 46.8554 184.43 46.7674C184.35 46.6794 184.31 46.5554 184.31 46.3954V43.2274C184.31 42.6914 184.214 42.2994 184.022 42.0514C183.838 41.7954 183.53 41.6674 183.098 41.6674C182.618 41.6674 182.238 41.8354 181.958 42.1714C181.686 42.4994 181.55 42.9474 181.55 43.5154V46.3954C181.55 46.7314 181.386 46.8994 181.058 46.8994ZM193.459 46.9234C192.843 46.9234 192.311 46.8034 191.863 46.5634C191.423 46.3154 191.079 45.9674 190.831 45.5194C190.591 45.0714 190.471 44.5354 190.471 43.9114C190.471 43.3034 190.591 42.7754 190.831 42.3274C191.071 41.8714 191.399 41.5154 191.815 41.2594C192.239 41.0034 192.727 40.8754 193.279 40.8754C193.671 40.8754 194.023 40.9434 194.335 41.0794C194.647 41.2074 194.911 41.3954 195.127 41.6434C195.351 41.8914 195.519 42.1914 195.631 42.5434C195.751 42.8954 195.811 43.2914 195.811 43.7314C195.811 43.8594 195.775 43.9554 195.703 44.0194C195.631 44.0754 195.527 44.1034 195.391 44.1034H191.215V43.4674H195.163L194.971 43.6234C194.971 43.1914 194.907 42.8274 194.779 42.5314C194.651 42.2274 194.463 41.9954 194.215 41.8354C193.975 41.6754 193.671 41.5954 193.303 41.5954C192.895 41.5954 192.547 41.6914 192.259 41.8834C191.979 42.0674 191.767 42.3274 191.623 42.6634C191.479 42.9914 191.407 43.3754 191.407 43.8154V43.8874C191.407 44.6234 191.583 45.1834 191.935 45.5674C192.295 45.9514 192.803 46.1434 193.459 46.1434C193.731 46.1434 193.999 46.1074 194.263 46.0354C194.535 45.9634 194.799 45.8434 195.055 45.6754C195.167 45.6034 195.267 45.5714 195.355 45.5794C195.451 45.5794 195.527 45.6074 195.583 45.6634C195.639 45.7114 195.675 45.7754 195.691 45.8554C195.715 45.9274 195.707 46.0074 195.667 46.0954C195.635 46.1834 195.567 46.2594 195.463 46.3234C195.199 46.5154 194.887 46.6634 194.527 46.7674C194.167 46.8714 193.811 46.9234 193.459 46.9234Z" fill="#606060"/>
<path fill-rule="evenodd" clip-rule="evenodd" d="M6.768 22.336C8.10133 22.9333 9.52533 23.232 11.04 23.232C12.5653 23.232 13.9947 22.9333 15.328 22.336C16.6613 21.728 17.8347 20.8907 18.848 19.824C19.8613 18.7573 20.6507 17.5253 21.216 16.128C21.792 14.72 22.08 13.216 22.08 11.616C22.08 10.016 21.792 8.51733 21.216 7.12C20.6507 5.712 19.8613 4.47467 18.848 3.408C17.8347 2.34133 16.6613 1.50933 15.328 0.912001C13.9947 0.304 12.5653 0 11.04 0C9.52533 0 8.10133 0.304 6.768 0.912001C5.43467 1.50933 4.26133 2.34133 3.248 3.408C2.23467 4.47467 1.44 5.712 0.864 7.12C0.288 8.51733 0 10.016 0 11.616C0 13.216 0.288 14.72 0.864 16.128C1.44 17.5253 2.23467 18.7573 3.248 19.824C4.26133 20.8907 5.43467 21.728 6.768 22.336ZM13.808 18.72C12.944 19.1253 12.0213 19.328 11.04 19.328C10.0587 19.328 9.136 19.1307 8.272 18.736C7.41867 18.3307 6.66133 17.776 6 17.072C5.34933 16.3573 4.83733 15.536 4.464 14.608C4.09067 13.68 3.904 12.6827 3.904 11.616C3.904 10.56 4.08533 9.568 4.448 8.64C4.82133 7.712 5.33333 6.896 5.984 6.192C6.64533 5.47733 7.408 4.91733 8.272 4.512C9.136 4.10667 10.0587 3.904 11.04 3.904C12.0213 3.904 12.9387 4.10667 13.792 4.512C14.656 4.91733 15.4133 5.472 16.064 6.176C16.7253 6.88 17.2427 7.70133 17.616 8.64C17.9893 9.568 18.176 10.56 18.176 11.616C18.176 12.672 17.9893 13.664 17.616 14.592C17.2533 15.52 16.7413 16.3413 16.08 17.056C15.4293 17.76 14.672 18.3147 13.808 18.72Z" fill="white"/>
<path d="M38.7077 0.416H34.4837V22.816H38.3877V7.472L47.8597 22.816H52.0678V22.072C51.0121 20.3799 49.3568 17.6984 48.1637 15.755V15.76L38.7077 0.416Z" fill="white"/>
<path d="M48.1637 12.3165L52.0678 18.3138V0.416H48.1637V12.3165Z" fill="white"/>
<path d="M72.9092 0.416H77.4053L85.5492 22.816H81.4053L79.9652 18.848H79.956L78.5197 14.944H78.5253L75.1493 5.712L71.7893 14.944H71.7939L70.3714 18.848H70.3652L68.9252 22.816H64.7812L72.9092 0.416Z" fill="white"/>
<path d="M119.645 0.416H115.421V22.816H119.325V7.472L128.797 22.816H133.005V22.0583C131.85 20.2015 130.198 17.5229 129.101 15.7335V15.76L119.645 0.416Z" fill="white"/>
<path d="M133.005 0.416V18.3217L129.101 12.3244V0.416H133.005Z" fill="white"/>
<path d="M146.359 0.416H160.407V4.32H150.263V4.33643H146.359V0.416Z" fill="white"/>
<path d="M153.72 9.5V9.49047H158.311V13.3945H150.263V13.416H146.359V9.5H153.72Z" fill="white"/>
<path d="M146.359 18.9097V22.816H160.407V18.912H150.263V18.9097H146.359Z" fill="white"/>
<path d="M176.923 0.416H172.891L178.619 22.816H183.067L186.507 9.248L189.995 22.816H194.427L200.123 0.416H196.091L192.203 15.728L188.299 0.416H184.731L180.827 15.728L176.923 0.416Z" fill="white"/>
<path d="M220.204 23.232C218.967 23.232 217.777 23.04 216.636 22.656C215.505 22.2613 214.513 21.7013 213.66 20.976C212.807 20.24 212.193 19.36 211.82 18.336L215.484 16.992C215.633 17.4187 215.937 17.808 216.396 18.16C216.855 18.512 217.415 18.7947 218.076 19.008C218.737 19.2213 219.447 19.328 220.204 19.328C220.983 19.328 221.708 19.2107 222.38 18.976C223.063 18.7307 223.612 18.3947 224.028 17.968C224.444 17.5307 224.652 17.024 224.652 16.448C224.652 15.8613 224.433 15.3813 223.996 15.008C223.559 14.624 222.999 14.32 222.316 14.096C221.633 13.872 220.929 13.7013 220.204 13.584C219 13.3981 217.89 13.1356 216.876 12.7966C216.351 11.506 216.263 9.67157 216.889 8.79966C217.198 8.97374 217.557 9.11252 217.964 9.216C218.636 9.376 219.383 9.52533 220.204 9.664C221.697 9.89867 223.079 10.2933 224.348 10.848C225.617 11.4027 226.636 12.144 227.404 13.072C228.172 13.9893 228.556 15.1147 228.556 16.448C228.556 17.8027 228.172 18.992 227.404 20.016C226.636 21.0293 225.617 21.8187 224.348 22.384C223.079 22.9493 221.697 23.232 220.204 23.232Z" fill="white"/>
<path d="M212.94 10.32C213.453 10.9522 214.094 11.4885 214.861 11.9289C214.572 9.3216 215.249 7.4662 215.886 6.05811L215.893 6.07031C215.999 5.80444 216.167 5.557 216.396 5.328C216.823 4.90133 217.372 4.56533 218.044 4.32C218.727 4.064 219.447 3.94133 220.204 3.952C220.961 3.952 221.671 4.05867 222.332 4.272C222.993 4.47467 223.553 4.752 224.012 5.104C224.471 5.456 224.775 5.84534 224.924 6.272L228.604 4.944C228.231 3.90933 227.612 3.024 226.748 2.288C225.895 1.552 224.897 0.992001 223.756 0.608002C222.615 0.224002 221.431 0.0320015 220.204 0.0320015C218.732 0.0320015 217.361 0.314668 216.092 0.880001C214.823 1.44533 213.799 2.23467 213.02 3.248C212.241 4.26133 211.852 5.44533 211.852 6.8C211.852 8.24 212.215 9.41333 212.94 10.32Z" fill="white"/>
</svg>
